<svg version="1.2" xmlns="http://www.w3.org/2000/svg" viewBox="0 0 1572 294" width="1572" height="294">
	<title>logo-svg</title>
	<style>
		.s0 { fill: #000000 } 
	</style>
	<g id="Layer">
		<path id="Layer" class="s0" d="m338.3 55.7c9.4 5.2 17.6 17 21.3 30.8 1 3.8 1.8 12.2 2.1 22.8l0.6 16.8-7.9-0.3-7.9-0.3-0.6-17c-0.4-13.8-0.9-18.1-2.6-22.7-5.4-14.7-15.1-20.6-32.1-19.6-14.3 0.9-22.3 7.8-27 23.3-1.3 4.2-1.6 14.6-1.9 63-0.5 62.6 0 71 4.3 80.5 5.2 11.3 12.3 16 25.5 16.8 13.7 0.7 22.7-3.4 28.4-13.1 4.5-7.9 5.5-15 5.5-42.5v-25.2h-16.5-16.5v-8-8h24.5 24.5v30.7c0 40.8-1.5 50-10 63.2-7.6 11.8-18.7 17.9-34.5 18.8-25.6 1.5-43.6-12.8-48.9-38.9-2.4-11.5-2.4-126.1 0-137.5 4.1-20.1 16-33.7 32.9-37.9 11.3-2.8 27-0.9 36.8 4.3z"/>
		<path id="Layer" class="s0" d="m524 50.1c13.5-0.1 24.2 4.2 32.8 13.3 9.1 9.6 12.9 20.8 13.9 40.4l0.6 12.3-7.9-0.3-7.9-0.3-0.6-12.5c-0.8-15.6-3-22.3-9.8-29.2-6-6-13.1-8.2-24.1-7.6-16.9 1-25.4 10.4-28 31-1.9 15.3 1.8 26.8 11.9 36.8 3.1 3.1 13.9 11.2 24.1 18 22.3 15 31 23.2 36.3 34 4.2 8.6 5.7 15.2 5.7 25.5 0 22.3-9.5 41.7-24.1 49.1-14.1 7.1-33.7 7-47.1-0.3-6.3-3.5-14.3-12-17.3-18.5-4.3-9.4-5.7-16.6-6.2-32.6l-0.6-15.3 7.9 0.3 7.9 0.3 0.6 15.5c0.4 8.5 1.1 16.9 1.6 18.5 5 15.3 15.6 22.2 32.7 21.3 17.4-0.9 26-10.3 28.6-31.3 1.7-13.6-0.8-23.4-8.3-32.7-3.9-4.8-14.4-12.9-31.7-24.3-23.3-15.4-33.8-28.2-37.1-45.3-1.4-7.6-0.7-23.2 1.5-31.5 4.9-17.9 15.9-29.4 32.1-33.3 2.7-0.7 8.4-1.3 12.5-1.3z"/>
		<path id="Layer" fill-rule="evenodd" class="s0" d="m748.5 51.5c16.3 4.3 27.8 16.5 33 35.5 1.7 5.8 1.9 12.3 2.3 64 0.4 57.8-0.2 70.9-3.2 81.1-5.1 16.9-17 28.7-32.7 32.4-22.9 5.4-44.6-3.7-53.8-22.7-6.7-13.8-6.6-12.4-6.6-83.8 0-58.5 0.2-65.1 1.8-71 5.1-19 16.3-31.2 32.7-35.6 6.3-1.8 19.5-1.7 26.5 0.1zm-24.6 15.9c-9.1 3.2-14.8 9-18.5 19.1-1.8 4.7-1.9 9.3-2.2 68-0.3 68.6-0.2 70.9 5.1 80.8 5.9 11.1 14 15.2 29 14.5 13.1-0.6 20.7-5.1 25.8-15 4.6-9 4.9-13.6 4.9-76.8 0-63-0.3-67.9-4.8-76.7-3.1-5.9-10.2-11.9-16.3-13.7-6.3-1.9-18-2-23-0.2z"/>
		<path id="Layer" fill-rule="evenodd" class="s0" d="m1038.5 51.5c16.6 4.4 27.7 16.4 32.6 35.3 1.8 7 1.9 11.5 1.9 71.2 0 59.7-0.1 64.2-1.9 71.2-2.6 10-6.2 17-12.2 23.3-5.9 6.2-12.4 9.9-21 12-18.2 4.3-37.8-1.1-47.7-13-4.4-5.4-8.7-13.9-10.9-21.5-1.7-6-1.8-11.5-1.8-72 0-60.3 0.1-66 1.8-71.9 5.3-18.6 17.4-31.2 33.4-35 6.1-1.4 19.4-1.2 25.8 0.4zm-24.7 15.8c-5.6 1.8-12.3 7-15.2 11.9-5.7 9.8-5.9 11.6-6.4 70-0.4 58.2 0.3 72.6 3.9 82.3 2.9 7.8 9.6 14.6 16.8 17 7.3 2.4 21.9 1.8 27.6-1.2 5.4-2.9 11-8.8 13.4-14.4 3.8-8.6 4.2-15.9 3.9-78.9-0.3-60.1-0.3-60.5-2.6-67.3-3.1-9.3-10.3-16.8-18.1-19.1-6.3-1.8-17.9-2-23.3-0.3z"/>
		<path id="Layer" fill-rule="evenodd" class="s0" d="m92.8 51.2l6.6 0.3 26.8 103.5c14.7 56.9 27 104.7 27.3 106.2l0.7 2.8h-15.9l-5.3-20.8c-2.9-11.4-5.7-22.2-6.2-24l-0.9-3.2-33.1 0.2-33.2 0.3-5.9 23.7-5.9 23.8h-7.9c-4.4 0-7.9-0.2-7.9-0.4 0-1 53.2-211.2 53.7-211.9 0.3-0.4 3.5-0.7 7.1-0.5zm-0.8 37.9c0 0.2-6.3 25.1-14 55.4-7.7 30.2-13.8 55-13.6 55.2 0.2 0.2 13.1 0.2 28.7 0.1l28.5-0.3-14.1-54.7c-11.9-46.1-15.4-58.7-15.5-55.7z"/>
		<path id="Layer" class="s0" d="m162.9 51h7.5 7.5l0.4 85.2c0.2 62.1 0.7 86.5 1.5 89.6 3.2 11.5 8.2 17.9 17 22 4.8 2.2 6.4 2.4 14.7 2 8.2-0.3 9.9-0.7 14.1-3.4 5.6-3.4 10.6-10.2 13.1-17.7 1.6-4.7 1.8-13 2.3-91.2l0.5-86 7.3-0.3 7.2-0.3v85.1c0 93.6 0.1 92.6-6.2 105.8-3.4 7.2-11.5 16-17.6 19.1-9.5 4.8-23.9 6.4-34.5 3.6-8.7-2.2-14.7-5.7-20.3-11.7-5.8-6.1-8.1-10.2-11.5-20.3l-2.4-7-0.3-87.3z"/>
		<path id="Layer" class="s0" d="m380.2 51.2l7.3 0.3 0.5 86.5c0.5 78.5 0.7 87 2.3 91.6 4.5 13.5 14.4 20.4 29.1 20.4 14.1 0 22.8-6.1 27.8-19.5l2.3-6 0.5-86.5 0.5-86.5h7.5 7.5v85.5c0 94.5 0.3 90.3-6.5 104.7-8.8 18.9-29.6 28-51.9 22.8-16.5-3.9-27.2-15.3-32.7-34.5-1.7-6-1.8-12.5-2.2-91.4-0.1-46.7 0-85.6 0.2-86.3 0.4-1 2.4-1.3 7.8-1.1z"/>
		<path id="Layer" class="s0" d="m576 51l52.8 0.2 52.7 0.3v7.5 7.5l-22.5 0.5-22.5 0.5-0.3 98.2-0.2 98.3h-7.5-7.5v-98.5-98.5h-22.5-22.5v-8z"/>
		<path id="Layer" class="s0" d="m846.9 51.2l7.6 0.3 23.2 87c24.9 93.1 24.1 90 24.8 89.3 0.3-0.3 11.3-40.1 24.4-88.4l23.8-87.9h7.9 7.9l0.3 106.2 0.2 106.3h-8-8l-0.1-76.3c0-52.3-0.4-75.3-1.1-73.4-0.5 1.5-9.9 35.7-20.8 76l-19.7 73.2-7 0.3-6.9 0.3-19.8-73.7c-10.9-40.5-20.1-74.6-20.6-75.8-0.5-1.2-0.9 30.4-0.9 73.6l-0.1 75.8h-8-8v-105.8c0-58.2 0.3-106.2 0.7-106.6 0.4-0.4 4.1-0.5 8.2-0.4z"/>
		<path id="Layer" fill-rule="evenodd" class="s0" d="m1084 51h22.3c12.2 0 26 0.5 30.6 1 21.6 2.7 33.8 14.9 37.8 37.5 1.9 11.2 1.3 41.1-1 49.1-2.2 7.9-6.6 15.1-12 20l-4.9 4.4 5.1 4.6c5.9 5.3 9.2 10.5 11.7 18.4 1.3 4.4 1.8 11 2.3 33.5 0.5 23.7 0.9 28.5 2.3 31.4 1.7 3.2 1.7 3.5-0.4 8.3-2.1 4.8-2.1 4.9-6.2 4.6-3.6-0.3-4.3-0.8-6.3-4.3-3.8-6.7-4.6-13-5.2-41l-0.6-27-2.9-5.8c-5.5-11.3-15.3-14.7-41.5-14.7h-16.1v93h-15zm35.8 16.2c-15.7-0.3-19.9-0.1-20.3 1-0.3 0.7-0.4 20.4-0.3 43.8l0.3 42.5h17.5c25.7-0.1 34.2-3.2 39.7-14.4 2.7-5.5 2.8-6.1 3.1-25.7 0.5-29.6-2.1-37.7-14.3-43.9-5.8-3-5.9-3-25.7-3.3z"/>
		<path id="Layer" class="s0" d="m1192 51h43.5 43.5v8 8l-35.7 0.2-35.8 0.3v40.5 40.5l30.3 0.3 30.2 0.2v7.5 7.5l-30.2 0.2-30.3 0.3-0.3 42.2-0.2 42.3h36 36v7.5 7.5h-43.5-43.5v-106.5z"/>
		<path id="Layer" class="s0" d="m1290 51h7.5 7.5v106.5 106.5h-7.5-7.5v-106.5z"/>
		<path id="Layer" fill-rule="evenodd" class="s0" d="m1368.5 52c20.2 2.9 32.4 13.8 37 33.2 2.1 8.8 2.1 44.1 0 52.1-2.3 9-5.5 14.8-11.2 20.4l-5.4 5.3 5.4 5.3c3 2.9 6.2 6.8 7.1 8.6 4.6 8.9 4.9 10.7 5.6 40.1 0.6 24.2 1 29.2 2.6 33.2 1.8 4.7 1.8 4.8-0.4 9.3-2 4.2-2.5 4.5-6 4.5-3.4 0-4.1-0.4-5.9-3.8-4.1-7.3-4.6-11-5.2-39.7-0.6-26.5-0.8-28.3-3-33.3-1.3-2.9-4.1-6.8-6.2-8.6-6.7-5.7-12-6.9-33.1-7.4l-18.8-0.4v93.2h-16v-105.8c0-58.2 0.3-106.2 0.7-106.5 1-1.1 45-0.8 52.8 0.3zm-19.2 15h-18.3v88.2l18.3-0.5c23.9-0.6 31.6-3 37.4-11.6 4.2-6.2 4.8-10.4 4.8-32.6-0.1-19.4-0.3-21.4-2.3-26.7-2.9-7.3-9.2-13.1-16.3-15.2-3.9-1.2-9.9-1.6-23.6-1.6z"/>
		<path id="Layer" fill-rule="evenodd" class="s0" d="m1482.8 51.2l6.5 0.3 27.3 105.5c15.1 58 27.4 105.8 27.4 106.2 0 0.5-3.5 0.8-7.8 0.8h-7.9l-5.2-20.3c-2.9-11.1-5.7-21.9-6.2-24l-1-3.7-33.1 0.2-33.2 0.3-5.9 23.7-5.9 23.8h-7.9c-4.4 0-7.9-0.3-7.9-0.6 0-1.1 53.2-210.9 53.7-211.7 0.2-0.4 3.4-0.7 7.1-0.5zm-0.1 38.2c-0.3-0.3-0.8 0.3-1.1 1.3-1.6 5-27.5 108.8-27.2 109 0.2 0.2 13.1 0.2 28.7 0.1l28.5-0.3-14.2-54.8c-7.8-30.1-14.4-55-14.7-55.3z"/>
	</g>
</svg>